<svg width="512" height="512" viewBox="0 0 512 512" fill="none" xmlns="http://www.w3.org/2000/svg">
<rect width="512" height="512" rx="110" fill="#080B12"/>
<path d="M424.441 201.906C412.679 190.242 400.814 178.68 389.213 166.859C385.235 162.805 381.012 160.72 375.196 160.814C358.636 161.082 342.068 160.85 325.504 160.971C322.61 160.992 319.095 159.818 317.176 163.582C317.335 167.496 320.481 169.441 322.818 171.799C347.682 196.88 372.596 221.912 397.526 246.927C406.42 255.853 406.411 256.374 397.313 265.498C371.493 291.392 345.683 317.295 319.961 343.284C317.988 345.277 314.583 346.641 315.27 351.117C336.286 351.117 357.191 351.101 378.095 351.133C381.427 351.138 384.235 349.96 386.524 347.662C406.368 327.74 427.051 308.564 445.757 287.622C464.117 267.067 462.199 240.736 443.192 220.831C437.365 214.73 431.317 208.84 424.441 201.906Z" fill="#DFFE00"/>
<path d="M103.715 160.95C78.718 160.993 58.8611 176.581 54.5587 200.197C52.9535 209.008 53.5635 218.274 53.6353 227.329C53.891 259.596 74.3526 279.746 106.812 279.794C147.483 279.855 188.154 279.784 228.825 279.848C239.873 279.865 241.326 281.76 241.69 292.151C242.013 301.365 237.7 303.994 229.146 303.956C179.09 303.735 129.032 303.998 78.9768 303.685C69.9939 303.628 66.422 306.667 66.9689 315.673C67.4799 324.088 67.3121 332.57 66.9762 341.004C66.697 348.015 69.065 351.295 76.6027 351.271C133.229 351.085 189.858 351.396 246.481 350.971C262.738 350.849 275.811 343.274 285.118 329.558C294.258 316.087 294.84 300.941 294.644 285.451C294.244 253.901 272.852 232.382 241.327 232.331C200.343 232.264 159.359 232.343 118.375 232.256C107.626 232.233 104.34 228.271 105.353 217.922C106.176 209.501 111.599 208.362 118.588 208.359C159.501 208.34 200.414 208.292 241.327 208.236C259.099 208.211 276.871 208.185 294.644 208.159V160.729H241.327L103.715 160.95Z" fill="white"/>
</svg>
