<svg width="512" height="512" viewBox="0 0 512 512" fill="none" xmlns="http://www.w3.org/2000/svg">
<path d="M453.659 192.522C439.857 178.835 425.934 165.268 412.321 151.396C407.653 146.639 402.697 144.192 395.872 144.302C376.439 144.616 356.997 144.345 337.56 144.487C334.164 144.512 330.04 143.133 327.788 147.551C327.974 152.143 331.666 154.426 334.409 157.193C363.586 186.625 392.821 215.998 422.075 245.353C432.513 255.827 432.502 256.439 421.825 267.146C391.527 297.53 361.24 327.927 331.056 358.424C328.741 360.763 324.745 362.363 325.551 367.616C350.213 367.616 374.744 367.597 399.274 367.635C403.184 367.641 406.479 366.258 409.165 363.561C432.452 340.184 456.723 317.681 478.673 293.107C500.218 268.986 497.967 238.088 475.663 214.731C468.826 207.571 461.728 200.659 453.659 192.522Z" fill="#01E0B8"/>
<path d="M77.2992 144.462C47.966 144.512 24.6646 162.804 19.6159 190.517C17.7323 200.856 18.4481 211.73 18.5323 222.355C18.8324 260.219 42.8434 283.864 80.9331 283.921C128.659 283.992 176.385 283.909 224.111 283.984C237.076 284.005 238.781 286.228 239.208 298.421C239.587 309.233 234.526 312.319 224.487 312.275C165.749 312.015 107.007 312.323 48.2696 311.956C37.7285 311.89 33.5371 315.455 34.1788 326.024C34.7785 335.899 34.5816 345.852 34.1874 355.749C33.8597 363.975 36.6385 367.825 45.4838 367.796C111.932 367.578 178.384 367.943 244.83 367.445C263.907 367.302 279.248 358.413 290.168 342.317C300.894 326.509 301.577 308.736 301.347 290.56C300.878 253.536 275.775 228.285 238.781 228.225C190.688 228.147 142.595 228.238 94.5017 228.136C81.8884 228.11 78.0326 223.46 79.2206 211.316C80.1872 201.435 86.5502 200.098 94.7525 200.095C142.762 200.072 190.772 200.016 238.781 199.95C259.637 199.921 280.492 199.891 301.347 199.86V144.203H238.781L77.2992 144.462Z" fill="white"/>
</svg>
