<svg width="839" height="839" viewBox="0 0 839 839" fill="none" xmlns="http://www.w3.org/2000/svg">
<path d="M702.265 328.691C682.521 309.111 662.602 289.701 643.128 269.856C636.45 263.052 629.36 259.552 619.597 259.709C591.796 260.158 563.983 259.77 536.177 259.973C531.319 260.009 525.419 258.036 522.197 264.356C522.464 270.926 527.745 274.192 531.669 278.15C573.409 320.254 615.232 362.275 657.082 404.269C672.013 419.252 671.998 420.128 656.724 435.445C613.381 478.912 570.053 522.396 526.872 566.025C523.561 569.371 517.845 571.66 518.998 579.174C554.278 579.174 589.371 579.147 624.464 579.202C630.057 579.211 634.77 577.233 638.613 573.374C671.926 539.931 706.648 507.74 738.049 472.585C768.871 438.078 765.651 393.876 733.743 360.461C723.962 350.219 713.808 340.332 702.265 328.691Z" fill="#DFFE00"/>
<path d="M163.856 259.938C121.893 260.01 88.5586 286.177 81.3361 325.822C78.6415 340.613 79.6655 356.168 79.7859 371.369C80.2152 425.536 114.565 459.362 169.055 459.444C237.33 459.545 305.606 459.427 373.881 459.534C392.428 459.563 394.867 462.743 395.478 480.186C396.02 495.655 388.78 500.069 374.419 500.005C290.389 499.633 206.355 500.075 122.327 499.549C107.247 499.455 101.251 504.555 102.169 519.674C103.027 533.801 102.746 548.04 102.182 562.198C101.713 573.967 105.688 579.474 118.342 579.433C213.401 579.121 308.465 579.643 403.52 578.93C430.812 578.726 452.757 566.009 468.38 542.983C483.724 520.368 484.701 494.942 484.372 468.941C483.701 415.976 447.789 379.852 394.867 379.766C326.067 379.654 257.266 379.786 188.465 379.639C170.421 379.601 164.905 372.95 166.605 355.577C167.988 341.441 177.09 339.529 188.824 339.524C257.505 339.491 326.186 339.412 394.867 339.317C424.702 339.276 454.537 339.232 484.372 339.188V259.567H394.867L163.856 259.938Z" fill="white"/>
</svg>
