<svg width="680" height="320" viewBox="0 0 680 320" fill="none" xmlns="http://www.w3.org/2000/svg">
<path d="M622.769 69.1239C603.025 49.5437 583.107 30.1343 563.632 10.2893C556.954 3.48485 549.864 -0.0155315 540.101 0.142045C512.301 0.590923 484.488 0.202919 456.682 0.405938C451.824 0.441374 445.924 -1.53066 442.702 4.78907C442.968 11.3584 448.249 14.6248 452.174 18.5832C493.913 60.6868 535.736 102.708 577.586 144.702C592.518 159.685 592.502 160.561 577.229 175.878C533.885 219.345 490.557 262.829 447.377 306.458C444.065 309.804 438.349 312.093 439.502 319.607C474.782 319.607 509.875 319.58 544.968 319.635C550.561 319.643 555.275 317.665 559.118 313.807C592.431 280.364 627.152 248.172 658.553 213.017C689.376 178.51 686.155 134.309 654.247 100.894C644.466 90.6515 634.312 80.7647 622.769 69.1239Z" fill="#DFFE00"/>
<path d="M84.3605 0.370643C42.3973 0.442433 9.06301 26.6098 1.84047 66.255C-0.854143 81.0458 0.169883 96.6013 0.290339 111.802C0.719598 165.969 35.069 199.795 89.5589 199.876C157.834 199.978 226.11 199.859 294.385 199.967C312.932 199.996 315.371 203.176 315.982 220.619C316.524 236.087 309.284 240.502 294.923 240.438C210.893 240.066 126.86 240.508 42.8317 239.982C27.7519 239.887 21.7557 244.988 22.6738 260.107C23.5316 274.234 23.25 288.472 22.6861 302.631C22.2173 314.399 26.1925 319.907 38.8463 319.865C133.906 319.554 228.97 320.076 324.025 319.363C351.316 319.158 373.262 306.442 388.885 283.416C404.229 260.801 405.206 235.375 404.876 209.373C404.205 156.409 368.294 120.284 315.372 120.199C246.571 120.087 177.77 120.218 108.97 120.072C90.9257 120.034 85.4096 113.383 87.1091 96.0101C88.492 81.8739 97.5947 79.962 109.329 79.9565C178.01 79.9242 246.691 79.8447 315.372 79.7499C345.207 79.7087 375.041 79.6647 404.876 79.6205V0H315.372L84.3605 0.370643Z" fill="white"/>
</svg>
