<svg width="757" height="117" viewBox="0 0 757 117" fill="none" xmlns="http://www.w3.org/2000/svg">
<path d="M159.726 8.61944C159.675 0.249163 159.435 0.00579082 151.052 7.07358e-05C146.977 -0.00272004 142.902 0.0783848 138.829 0.0106131C135.627 -0.0426516 134.09 1.33031 134.153 4.6107C134.234 8.83441 134.159 13.0612 134.146 17.2866C134.122 24.5337 134.12 24.5402 127.01 24.5411C92.7536 24.5455 58.4968 24.5091 24.2402 24.5677C12.1825 24.5883 2.60418 32.1072 0.528843 43.4989C-0.24543 47.7489 0.0488143 52.2187 0.0834264 56.5865C0.20677 72.1509 10.0768 81.8705 25.734 81.8939C45.3523 81.9231 64.9707 81.889 84.589 81.9199C89.9182 81.9283 90.6191 82.842 90.7947 87.8542C90.9503 92.2988 88.87 93.5672 84.7436 93.5489C60.5983 93.442 36.452 93.5689 12.3073 93.4178C7.97425 93.3907 6.25131 94.8563 6.51511 99.2005C6.76161 103.26 6.68067 107.351 6.51864 111.419C6.38394 114.801 7.52618 116.384 11.1621 116.372C38.4766 116.282 65.7924 116.432 93.1056 116.227C100.948 116.169 107.253 112.514 111.743 105.898C116.152 99.4001 116.432 92.0942 116.338 84.6228C116.145 69.4039 105.826 59.0238 90.6193 58.9992C70.85 58.9671 51.0807 59.0049 31.3115 58.9629C26.1267 58.9519 24.5417 57.0407 25.03 52.0488C25.4274 47.9869 28.043 47.4375 31.4146 47.436C72.1585 47.4168 112.902 47.3397 153.646 47.286C154.375 47.285 155.191 47.1915 155.546 48.1283C155.256 49.2962 154.136 49.0301 153.381 49.3177C140.77 54.1174 134.178 63.5809 134.153 76.9998C134.144 81.9798 134.089 86.961 134.174 91.9397C134.413 105.939 144.119 115.961 158.118 116.242C170.789 116.497 183.47 116.237 196.145 116.373C199.377 116.407 200.445 114.997 200.412 112.051C200.363 107.676 200.398 103.299 200.425 98.9232C200.45 94.973 198.755 93.3688 194.588 93.4828C184.94 93.7468 175.279 93.6115 165.623 93.54C160.315 93.5007 159.785 92.905 159.764 87.3849C159.72 75.4632 159.723 63.5412 159.733 51.6194C159.734 50.3078 159.329 48.8872 160.759 47.4019C161.06 47.4019 161.39 47.4018 161.739 47.4018C162.079 47.4017 162.437 47.4017 162.807 47.4017C163.125 47.4017 163.451 47.4017 163.78 47.4018C163.999 47.4018 164.22 47.4019 164.441 47.402C174.25 47.4066 184.07 47.4187 193.889 47.3994C197.875 47.3916 199.739 49.0211 199.726 53.0485C199.691 64.9467 199.726 76.8455 199.726 88.7441C199.726 89.4138 199.726 90.0836 199.726 90.7534C199.726 91.4231 199.726 92.0929 199.726 92.7627C199.726 93.4324 199.726 94.1022 199.726 94.772C199.726 95.4417 199.726 96.1115 199.726 96.7813C199.726 97.451 199.726 98.1208 199.726 98.7906C199.726 99.4603 199.726 100.13 199.726 100.8C199.726 101.47 199.726 102.139 199.726 102.809C199.726 103.479 199.726 104.149 199.726 104.818C199.726 105.488 199.726 106.158 199.726 106.828C199.726 107.497 199.726 108.167 199.726 108.837C199.726 109.507 199.726 110.176 199.726 110.846C199.726 111.516 199.726 112.186 199.726 112.855C199.726 113.525 199.726 114.195 199.726 114.865C199.726 115.534 199.726 116.204 199.726 116.372C197.332 116.372 194.938 116.372 192.544 116.372C190.15 116.372 187.756 116.372 185.362 116.372C182.968 116.372 180.574 116.372 178.18 116.372C175.786 116.372 173.392 116.372 170.998 116.372C168.604 116.372 166.21 116.372 163.816 116.372C161.422 116.372 159.028 116.372 156.634 116.372C154.24 116.372 151.846 116.372 149.452 116.372C147.058 116.372 144.664 116.372 142.27 116.372C139.876 116.372 137.482 116.372 135.088 116.372C132.694 116.372 130.3 116.372 127.906 116.372C125.512 116.372 123.118 116.372 120.724 116.372C118.33 116.372 115.936 116.372 113.542 116.372C111.148 116.372 108.754 116.372 106.36 116.372C103.966 116.372 101.572 116.372 99.178 116.372C96.784 116.372 94.39 116.372 91.996 116.372C89.602 116.372 87.208 116.372 84.814 116.372C82.42 116.372 80.026 116.372 77.632 116.372C75.238 116.372 72.844 116.372 70.45 116.372C68.056 116.372 65.662 116.372 63.268 116.372C60.874 116.372 58.48 116.372 56.086 116.372C53.692 116.372 51.298 116.372 48.904 116.372C46.51 116.372 44.116 116.372 41.722 116.372C39.328 116.372 36.934 116.372 34.54 116.372C32.146 116.372 29.752 116.372 27.358 116.372C24.964 116.372 22.57 116.372 20.176 116.372C17.782 116.372 15.388 116.372 12.994 116.372C10.6 116.372 8.206 116.372 5.812 116.372C3.418 116.372 1.024 116.372 0 116.372C0.0488143 115.702 0.0976286 115.033 0.146443 114.363C0.195257 113.693 0.244071 113.023 0.292886 112.354C0.3417 111.684 0.390514 111.014 0.439329 110.344C0.488143 109.675 0.536957 109.005 0.585772 108.335C0.634586 107.665 0.6834 106.996 0.732215 106.326C0.781029 105.656 0.829843 104.986 0.878658 104.317C0.927472 103.647 0.976286 102.977 1.0251 102.307C1.07392 101.638 1.12273 100.968 1.17155 100.298C1.22036 99.6284 1.26918 98.9586 1.31799 98.2888C1.36681 97.6191 1.41562 96.9493 1.46444 96.2795C1.51325 95.6098 1.56207 94.94 1.61088 94.2702C1.6597 93.6005 1.70851 92.9307 1.75733 92.2609C1.80614 91.5912 1.85496 90.9214 1.90377 90.2516C1.95259 89.5819 2.0014 88.9121 2.05022 88.2423C2.09903 87.5726 2.14785 86.9028 2.19666 86.233C2.24548 85.5633 2.29429 84.8935 2.34311 84.2237C2.39192 83.554 2.44074 82.8842 2.48955 82.2144C2.53837 81.5447 2.58718 80.8749 2.636 80.2051C2.68481 79.5354 2.73363 78.8656 2.78244 78.1958C2.83126 77.5261 2.88007 76.8563 2.92889 76.1865C2.9777 75.5168 3.02652 74.847 3.07533 74.1772C3.12415 73.5075 3.17296 72.8377 3.22178 72.1679C3.27059 71.4982 3.31941 70.8284 3.36822 70.1586C3.41704 69.4889 3.46585 68.8191 3.51467 68.1493C3.56348 67.4796 3.6123 66.8098 3.66111 66.14C3.70993 65.4703 3.75874 64.8005 3.80756 64.1307C3.85637 63.461 3.90519 62.7912 3.954 62.1214C4.00282 61.4517 4.05163 60.7819 4.10045 60.1121C4.14926 59.4424 4.19808 58.7726 4.24689 58.1028C4.29571 57.4331 4.34452 56.7633 4.39334 56.0935C4.44215 55.4238 4.49097 54.754 4.53978 54.0842C4.5886 53.4145 4.63741 52.7447 4.68623 52.0749C4.73504 51.4052 4.78386 50.7354 4.83267 50.0656C4.88149 49.3959 4.9303 48.7261 4.97912 48.0563C5.02793 47.3866 5.07675 46.7168 5.12556 46.047C5.17438 45.3773 5.22319 44.7075 5.27201 44.0377C5.32082 43.368 5.36964 42.6982 5.41845 42.0284C5.46727 41.3587 5.51608 40.6889 5.5649 40.0191C5.61371 39.3494 5.66253 38.6796 5.71134 38.0098C5.76016 37.3401 5.80897 36.6703 5.85779 36.0005C5.9066 35.3308 5.95542 34.661 6.00423 33.9912C6.05305 33.3215 6.10186 32.6517 6.15068 31.9819C6.19949 31.3122 6.24831 30.6424 6.29712 29.9726C6.34594 29.3029 6.39475 28.6331 6.44357 27.9633C6.49238 27.2936 6.5412 26.6238 6.59001 25.954C6.63883 25.2843 6.68764 24.6145 6.73646 23.9447C6.78527 23.275 6.83409 22.6052 6.8829 21.9354C6.93172 21.2657 6.98053 20.5959 7.02935 19.9261C7.07816 19.2564 7.12698 18.5866 7.17579 17.9168C7.22461 17.2471 7.27342 16.5773 7.32224 15.9075C7.37105 15.2378 7.41987 14.568 7.46868 13.8982C7.5175 13.2285 7.56631 12.5587 7.61513 11.8889C7.66394 11.2192 7.71276 10.5494 7.76157 9.87961C7.81039 9.20986 7.8592 8.54007 7.90802 7.87031C7.95683 7.20056 8.00565 6.53077 8.05446 5.86101C8.10328 5.19126 8.15209 4.52147 8.20091 3.85171C8.24972 3.18196 8.29854 2.51217 8.34735 1.84241C8.39617 1.17266 8.44498 0.50287 8.4938 0C8.84212 0 9.19044 0 9.53876 0C9.88708 0 10.2354 0 10.5837 0C10.932 0 11.2804 0 11.6287 0C11.977 0 12.3253 0 12.6737 0C13.022 0 13.3703 0 13.7186 0C14.0669 0 14.4153 0 14.7636 0C15.1119 0 15.4602 0 15.8086 0C16.1569 0 16.5052 0 16.8535 0C17.2018 0 17.5502 0 17.8985 0C18.2468 0 18.5951 0 18.9435 0C19.2918 0 19.6401 0 19.9884 0C20.3367 0 20.6851 0 21.0334 0C21.3817 0 21.73 0 22.0784 0C22.4267 0 22.775 0 23.1233 0C23.4716 0 23.82 0 24.1683 0C24.5166 0 24.8649 0 25.2133 0C25.5616 0 25.9099 0 26.2582 0C26.6065 0 26.9549 0 27.3032 0C27.6515 0 27.9998 0 28.3482 0C28.6965 0 29.0448 0 29.3931 0C29.7414 0 30.0898 0 30.4381 0C30.7864 0 31.1347 0 31.4831 0C31.8314 0 32.1797 0 32.528 0C32.8763 0 33.2247 0 33.573 0C33.9213 0 34.2696 0 34.618 0C34.9663 0 35.3146 0 35.6629 0C36.0112 0 36.3596 0 36.7079 0C37.0562 0 37.4045 0 37.7529 0C38.1012 0 38.4495 0 38.7978 0C39.1461 0 39.4945 0 39.8428 0C40.1911 0 40.5394 0 40.8878 0C41.2361 0 41.5844 0 41.9327 0C42.281 0 42.6294 0 42.9777 0C43.326 0 43.6743 0 44.0227 0C44.371 0 44.7193 0 45.0676 0C45.4159 0 45.7643 0 46.1126 0C46.4609 0 46.8092 0 47.1576 0C47.5059 0 47.8542 0 48.2025 0C48.5508 0 48.8992 0 49.2475 0C49.5958 0 49.9441 0 50.2925 0C50.6408 0 50.9891 0 51.3374 0C51.6857 0 52.0341 0 52.3824 0C52.7307 0 53.079 0 53.4274 0C53.7757 0 54.124 0 54.4723 0C54.8206 0 55.169 0 55.5173 0C55.8656 0 56.2139 0 56.5623 0C56.9106 0 57.2589 0 57.6072 0C57.9555 0 58.3039 0 58.6522 0C59.0005 0 59.3488 0 59.6972 0C60.0455 0 60.3938 0 60.7421 0C61.0904 0 61.4388 0 61.7871 0C62.1354 0 62.4837 0 62.8321 0C63.1804 0 63.5287 0 63.877 0C64.2253 0 64.5737 0 64.922 0C65.2703 0 65.6186 0 65.967 0C66.3153 0 66.6636 0 67.0119 0C67.3602 0 67.7086 0 68.0569 0C68.4052 0 68.7535 0 69.1019 0C69.4502 0 69.7985 0 70.1468 0C70.4951 0 70.8435 0 71.1918 0C71.5401 0 71.8884 0 72.2368 0C72.5851 0 72.9334 0 73.2817 0C73.63 0 73.9784 0 74.3267 0C74.675 0 75.0233 0 75.3717 0C75.72 0 76.0683 0 76.4166 0C76.7649 0 77.1133 0 77.4616 0C77.8099 0 78.1582 0 78.5066 0C78.8549 0 79.2032 0 79.5515 0C79.8998 0 80.2482 0 80.5965 0C80.9448 0 81.2931 0 81.6415 0C81.9898 0 82.3381 0 82.6864 0C83.0347 0 83.3831 0 83.7314 0C84.0797 0 84.428 0 84.7764 0C85.1247 0 85.473 0 85.8213 0C86.1696 0 86.518 0 86.8663 0C87.2146 0 87.5629 0 87.9113 0C88.2596 0 88.6079 0 88.9562 0C89.3045 0 89.6529 0 90.0012 0C90.3495 0 90.6978 0 91.0462 0C91.3945 0 91.7428 0 92.0911 0C92.4394 0 92.7878 0 93.1361 0C93.4844 0 93.8327 0 94.1811 0C94.5294 0 94.8777 0 95.226 0C95.5743 0 95.9227 0 96.271 0C96.6193 0 96.9676 0 97.316 0C97.6643 0 98.0126 0 98.3609 0C98.7092 0 99.0576 0 99.4059 0C99.7542 0 100.103 0 100.451 0C100.799 0 101.148 0 101.496 0C101.844 0 102.193 0 102.541 0C102.889 0 103.238 0 103.586 0C103.934 0 104.283 0 104.631 0C104.979 0 105.328 0 105.676 0C106.024 0 106.373 0 106.721 0C107.069 0 107.418 0 107.766 0C108.114 0 108.463 0 108.811 0C109.159 0 109.508 0 109.856 0C110.204 0 110.553 0 110.901 0C111.249 0 111.598 0 111.946 0C112.294 0 112.643 0 112.991 0C113.339 0 113.688 0 114.036 0C114.384 0 114.733 0 115.081 0C115.429 0 115.778 0 116.126 0C116.474 0 116.823 0 117.171 0C117.519 0 117.868 0 118.216 0C118.564 0 118.913 0 119.261 0C119.609 0 119.958 0 120.306 0C120.654 0 121.003 0 121.351 0C121.699 0 122.048 0 122.396 0C122.744 0 123.093 0 123.441 0C123.789 0 124.138 0 124.486 0C124.834 0 125.183 0 125.531 0C125.879 0 126.228 0 126.576 0C126.924 0 127.273 0 127.621 0C127.969 0 128.318 0 128.666 0C129.014 0 129.363 0 129.711 0C130.059 0 130.408 0 130.756 0C131.104 0 131.453 0 131.801 0C132.149 0 132.498 0 132.846 0C133.194 0 133.543 0 133.891 0C134.239 0 134.588 0 134.936 0C135.284 0 135.633 0 135.981 0C136.329 0 136.678 0 137.026 0C137.374 0 137.723 0 138.071 0C138.419 0 138.768 0 139.116 0C139.464 0 139.813 0 140.161 0C140.509 0 140.858 0 141.206 0C141.554 0 141.903 0 142.251 0C142.599 0 142.948 0 143.296 0C143.644 0 143.993 0 144.341 0C144.689 0 145.038 0 145.386 0C145.734 0 146.083 0 146.431 0C146.779 0 147.128 0 147.476 0C147.824 0 148.173 0 148.521 0C148.869 0 149.218 0 149.566 0C149.914 0 150.263 0 150.611 0C150.959 0 151.308 0 151.656 0C152.004 0 152.353 0 152.701 0C153.049 0 153.398 0 153.746 0C154.094 0 154.443 0 154.791 0C155.139 0 155.488 0 155.836 0C156.184 0 156.533 0 156.881 0C157.229 0 157.578 0 157.926 0C158.274 0 158.623 0 158.971 0C159.319 0 159.668 0 159.726 8.61944Z" fill="white"/>
<path d="M324.586 78.1453C324.582 68.3365 324.689 58.5261 324.548 48.7192C324.36 35.5922 314.955 24.9351 302.209 24.718C276.864 24.2862 251.507 24.5879 226.155 24.5435C222.98 24.5379 221.915 26.1592 221.958 29.0762C222.021 33.3005 222.188 37.5411 221.907 41.7479C221.614 46.1488 223.399 47.5644 227.697 47.5268C249.425 47.3369 271.156 47.384 292.885 47.3029C298.26 47.2829 299.545 48.2468 299.634 52.7836C299.74 58.1729 299.01 58.9379 293.404 58.9475C275.144 58.979 256.884 58.8972 238.625 59.0152C225.555 59.0997 215.211 69.0622 214.849 82.0639C214.571 92.0161 214.851 101.983 214.737 111.941C214.698 115.364 216.282 116.432 219.45 116.354C224.426 116.231 229.416 116.153 234.386 116.377C238.297 116.552 239.805 115.037 239.758 111.126C239.662 103.282 239.935 95.435 239.931 87.5892C239.928 83.3949 241.72 81.7905 246.004 81.8381C261.998 82.016 277.997 82.0365 293.99 81.8282C298.374 81.7712 299.855 83.2976 299.737 87.5794C299.526 95.2692 299.83 102.972 299.689 110.665C299.618 114.6 300.857 116.585 305.137 116.371C309.955 116.13 314.796 116.198 319.621 116.341C323.334 116.451 324.683 114.871 324.634 111.193C324.489 100.481 324.584 89.7652 324.586 78.1453Z" fill="white"/>
<path d="M442.323 88.7689C442.318 76.5517 442.402 64.3334 442.254 52.118C442.211 48.6521 443.261 47.2985 446.9 47.3743C456.7 47.5783 466.507 47.4645 476.311 47.4399C481.797 47.4261 482.415 46.8247 482.447 41.5834C482.47 37.6621 482.288 33.7346 482.451 29.8205C482.612 25.9668 481.106 24.4156 477.15 24.4858C467.199 24.6624 457.24 24.4339 447.288 24.5909C443.664 24.6481 442.067 23.5206 442.248 19.6922C442.482 14.7264 442.258 9.74009 442.291 4.76298C442.311 1.60105 440.884 0.00338645 437.654 0.023601C432.225 0.0575765 426.795 0.0687683 421.366 0.0121606C418.121 -0.0216773 416.702 1.54631 416.724 4.71762C416.756 9.39299 416.421 14.0905 416.772 18.7385C417.124 23.3999 415.323 24.6945 410.827 24.6339C394.993 24.4202 379.153 24.4573 363.317 24.6073C350.582 24.728 340.024 34.2163 339.841 46.3217C339.512 68.1873 339.766 90.0613 339.687 111.931C339.675 115.347 341.251 116.434 344.411 116.341C348.479 116.22 352.555 116.32 356.627 116.323C364.456 116.328 364.465 116.328 364.47 108.716C364.482 90.4657 364.463 72.2151 364.505 53.9647C364.518 48.23 365.356 47.4426 371.089 47.4376C392.507 47.4189 413.925 47.4149 435.342 47.43C436.264 47.4306 437.504 46.8694 437.945 48.5723C426.611 52.3062 418.795 59.5292 417.081 71.6769C415.988 79.4237 416.063 87.3892 417.039 95.1453C418.548 107.148 427.333 115.65 439.011 116.128C452.112 116.664 465.25 116.269 478.372 116.323C481.237 116.334 482.508 114.945 482.499 112.178C482.487 108.408 482.483 104.637 482.481 100.867C482.478 93.9969 481.696 93.4557 474.957 93.5694C465.613 93.7272 456.263 93.5101 446.916 93.4735C444.292 93.4632 442.536 92.4962 442.323 88.7689Z" fill="white"/>
<path fill-rule="evenodd" clip-rule="evenodd" d="M162.807 47.4017C162.437 47.4017 162.079 47.4017 161.739 47.4018C161.39 47.4018 161.06 47.4019 160.759 47.4019C161.352 47.4019 162.057 47.4017 162.807 47.4017Z" fill="white"/>
<path d="M739.954 44.3231C734.28 38.6969 728.557 33.1198 722.961 27.4175C721.042 25.4623 719.005 24.4565 716.2 24.5018C708.211 24.6308 700.22 24.5193 692.23 24.5776C690.834 24.5878 689.139 24.0211 688.213 25.8371C688.289 27.7247 689.807 28.6633 690.934 29.8007C702.928 41.8988 714.945 53.9732 726.971 66.0398C731.261 70.3451 731.257 70.5967 726.868 74.9979C714.413 87.4879 701.964 99.9826 689.556 112.519C688.604 113.48 686.962 114.138 687.293 116.297C697.431 116.297 707.514 116.289 717.598 116.305C719.205 116.308 720.56 115.739 721.664 114.631C731.236 105.021 741.213 95.7711 750.236 85.6696C759.092 75.7544 758.167 63.0534 748.999 53.452C746.188 50.5089 743.27 47.668 739.954 44.3231Z" fill="#DFFE00"/>
<path d="M512.221 47.4491H539.721C539.37 49.7921 538.253 50.6244 537.336 51.5751L532.87 56.2069C521.907 67.5766 510.944 78.9463 499.958 90.294C498.129 92.183 496.588 94.1078 496.623 96.9438C496.684 101.918 496.696 106.895 496.618 111.869C496.57 114.864 497.806 116.343 500.89 116.339C524.109 116.305 547.327 116.296 570.546 116.317C573.654 116.32 574.834 114.828 574.76 111.831L574.749 111.391C574.649 107.318 574.548 103.231 574.788 99.1704C575.037 94.9552 573.111 93.5321 569.176 93.5579C558.174 93.6301 547.172 93.5839 536.17 93.52C534.435 93.5099 532.576 94.0105 530.925 92.8255C530.912 90.8328 532.55 90.0033 533.625 88.862C545.717 76.0229 557.836 63.2083 569.971 50.4098C571.664 48.6244 573.15 46.8528 573.103 44.1574C573.015 39.0603 573.047 33.9606 573.079 28.8622L573.08 28.7798C573.097 26.0216 571.951 24.5875 569.042 24.5922C547.934 24.6267 526.827 24.6228 505.719 24.6142C503.069 24.6131 501.877 25.915 501.892 28.5134C501.915 32.584 501.881 36.6548 501.891 40.7255C501.905 46.7645 502.511 47.3627 508.642 47.4566C509.546 47.4704 510.451 47.4533 512.221 47.4491Z" fill="white"/>
<path d="M654.474 24.5924C649.726 23.7691 647.053 26.0299 644.854 30.1253C640.146 38.89 635.003 47.4212 629.998 56.024C629.189 57.4141 628.695 59.1099 626.829 59.8663C625.35 59.2782 624.815 57.7933 624.066 56.5392C620.429 50.4544 616.011 44.6781 613.39 38.1794C608.82 26.8484 601.251 22.2958 589.349 24.5759C586.512 25.1194 583.398 23.7141 580.743 25.5037C580.589 27.7483 581.943 29.1203 582.88 30.6116C592.672 46.1916 602.467 61.7703 612.381 77.2722C614.244 80.1856 615.218 83.1033 615.157 86.587C615.012 94.8816 615.209 103.182 615.1 111.478C615.055 114.935 616.424 116.46 619.911 116.375C624.585 116.262 629.269 116.212 633.938 116.403C637.735 116.558 638.979 114.958 638.845 111.27C638.571 103.736 638.727 96.1869 638.494 88.6505C638.344 83.7859 639.711 79.6241 642.354 75.5042C651.966 60.5268 661.318 45.3829 670.72 30.2723C671.626 28.8175 673.138 27.456 672.056 24.5923L654.474 24.5924Z" fill="white"/>
</svg>