<svg width="757" height="117" viewBox="0 0 757 117" fill="none" xmlns="http://www.w3.org/2000/svg">
<path d="M159.726 8.61944C159.675 0.249163 159.435 0.00579082 151.052 7.07358e-05C146.977 -0.00272004 142.902 0.0783848 138.829 0.0106131C135.627 -0.0426516 134.09 1.33031 134.153 4.6107C134.234 8.83441 134.159 13.0612 134.146 17.2866C134.122 24.5337 134.12 24.5402 127.01 24.5411C92.7536 24.5455 58.4968 24.5091 24.2402 24.5677C12.1825 24.5883 2.60418 32.1072 0.528843 43.4989C-0.24543 47.7489 0.0488143 52.2187 0.0834264 56.5865C0.20677 72.1509 10.0768 81.8705 25.734 81.8939C45.3523 81.9231 64.9707 81.889 84.589 81.9199C89.9182 81.9283 90.6191 82.842 90.7947 87.8542C90.9503 92.2988 88.87 93.5672 84.7436 93.5489C60.5983 93.442 36.452 93.5689 12.3073 93.4178C7.97425 93.3907 6.25131 94.8563 6.51511 99.2005C6.76161 103.26 6.68067 107.351 6.51864 111.419C6.38394 114.801 7.52618 116.384 11.1621 116.372C38.4766 116.282 65.7924 116.432 93.1056 116.227C100.948 116.169 107.253 112.514 111.743 105.898C116.152 99.4001 116.432 92.0942 116.338 84.6228C116.145 69.4039 105.826 59.0238 90.6193 58.9992C70.85 58.9671 51.0807 59.0049 31.3115 58.9629C26.1267 58.9519 24.5417 57.0407 25.03 52.0488C25.4274 47.9869 28.043 47.4375 31.4146 47.436C72.1585 47.4168 112.902 47.3397 153.646 47.286C154.375 47.285 155.191 47.1915 155.546 48.1283C155.256 49.2962 154.136 49.0301 153.381 49.3177C140.77 54.1174 134.178 63.5809 134.153 76.9998C134.144 81.9798 134.089 86.961 134.174 91.9397C134.413 105.939 144.119 115.961 158.118 116.242C170.789 116.497 183.47 116.237 196.145 116.373C199.377 116.407 200.445 114.997 200.412 112.051C200.363 107.676 200.398 103.299 200.425 98.9232C200.45 94.973 198.755 93.3688 194.588 93.4828C184.94 93.7468 175.279 93.6115 165.623 93.54C160.315 93.5007 159.785 92.905 159.764 87.3849C159.72 75.4632 159.723 63.5412 159.733 51.6194C159.734 50.3078 159.329 48.8872 160.759 47.4019C161.06 47.4019 161.39 47.4018 161.739 47.4018C162.079 47.4017 162.437 47.4017 162.807 47.4017C163.125 47.4017 163.451 47.4017 163.78 47.4018C163.999 47.4018 164.22 47.4019 164.441 47.402C174.25 47.4066 184.059 47.4278 193.868 47.4097C199.348 47.3995 199.949 46.8305 200.039 41.5553C200.105 37.6326 199.876 33.6946 200.144 29.7884C200.434 25.557 198.704 24.3594 194.602 24.4612C184.346 24.7155 174.079 24.4587 163.819 24.5788C160.676 24.6155 159.485 23.4788 159.661 20.3384C159.863 16.7275 159.719 13.0974 159.726 8.61944Z" fill="white"/>
<path d="M324.586 78.1453C324.582 68.3365 324.689 58.5261 324.548 48.7192C324.36 35.5922 314.955 24.9351 302.209 24.718C276.864 24.2862 251.507 24.5879 226.155 24.5435C222.98 24.5379 221.915 26.1592 221.958 29.0762C222.021 33.3005 222.188 37.5411 221.907 41.7479C221.614 46.1487 223.399 47.5644 227.697 47.5268C249.425 47.3369 271.156 47.384 292.885 47.3029C298.26 47.2829 299.545 48.2468 299.634 52.7836C299.74 58.1729 299.01 58.9379 293.404 58.9475C275.144 58.979 256.884 58.8972 238.625 59.0152C225.555 59.0997 215.211 69.0622 214.849 82.0639C214.571 92.0161 214.851 101.983 214.737 111.941C214.698 115.364 216.282 116.432 219.45 116.354C224.426 116.231 229.416 116.153 234.386 116.377C238.297 116.552 239.805 115.037 239.758 111.126C239.662 103.282 239.935 95.435 239.931 87.5892C239.928 83.3949 241.72 81.7905 246.004 81.8381C261.998 82.016 277.997 82.0365 293.99 81.8282C298.374 81.7712 299.855 83.2976 299.737 87.5794C299.526 95.2692 299.83 102.972 299.689 110.665C299.618 114.6 300.857 116.585 305.137 116.371C309.955 116.13 314.796 116.198 319.621 116.341C323.334 116.451 324.683 114.871 324.634 111.193C324.489 100.481 324.584 89.7652 324.586 78.1453Z" fill="white"/>
<path d="M442.323 88.7689C442.318 76.5517 442.402 64.3334 442.254 52.118C442.211 48.6521 443.261 47.2985 446.9 47.3743C456.7 47.5783 466.507 47.4645 476.311 47.4399C481.797 47.4261 482.415 46.8247 482.447 41.5834C482.47 37.6621 482.288 33.7346 482.451 29.8205C482.612 25.9668 481.106 24.4156 477.15 24.4858C467.199 24.6624 457.24 24.4339 447.288 24.5909C443.664 24.6481 442.067 23.5206 442.248 19.6922C442.482 14.7264 442.258 9.74009 442.291 4.76298C442.311 1.60105 440.884 0.00338645 437.654 0.023601C432.225 0.0575765 426.795 0.0687683 421.366 0.0121606C418.121 -0.0216773 416.702 1.54631 416.724 4.71762C416.756 9.39299 416.421 14.0905 416.772 18.7385C417.124 23.3999 415.323 24.6945 410.827 24.6339C394.993 24.4202 379.153 24.4573 363.317 24.6073C350.582 24.728 340.024 34.2163 339.841 46.3217C339.512 68.1873 339.766 90.0613 339.687 111.931C339.675 115.347 341.251 116.434 344.411 116.341C348.479 116.22 352.555 116.32 356.627 116.323C364.456 116.328 364.465 116.328 364.47 108.716C364.482 90.4657 364.463 72.2151 364.505 53.9647C364.518 48.23 365.356 47.4427 371.089 47.4376C392.507 47.4189 413.925 47.4149 435.343 47.43C436.264 47.4306 437.504 46.8694 437.945 48.5723C426.611 52.3062 418.795 59.5292 417.081 71.6769C415.988 79.4237 416.063 87.3892 417.039 95.1453C418.548 107.148 427.333 115.65 439.011 116.128C452.112 116.664 465.25 116.269 478.372 116.323C481.237 116.334 482.508 114.945 482.499 112.178C482.487 108.408 482.483 104.637 482.481 100.867C482.478 93.9969 481.696 93.4556 474.957 93.5694C465.613 93.7272 456.263 93.5101 446.916 93.4735C444.292 93.4632 442.536 92.4962 442.323 88.7689Z" fill="white"/>
<path fill-rule="evenodd" clip-rule="evenodd" d="M162.807 47.4017C162.437 47.4017 162.079 47.4017 161.739 47.4018C161.39 47.4018 161.06 47.4019 160.759 47.4019C161.352 47.4019 162.057 47.4017 162.807 47.4017Z" fill="white"/>
<path d="M739.954 44.3231C734.28 38.6969 728.557 33.1198 722.961 27.4175C721.042 25.4623 719.005 24.4565 716.2 24.5018C708.211 24.6308 700.22 24.5193 692.23 24.5776C690.834 24.5878 689.139 24.0211 688.213 25.8371C688.289 27.7247 689.807 28.6633 690.934 29.8007C702.928 41.8988 714.945 53.9732 726.971 66.0398C731.261 70.3451 731.257 70.5967 726.868 74.9979C714.413 87.4879 701.964 99.9826 689.556 112.519C688.604 113.48 686.962 114.138 687.293 116.297C697.431 116.297 707.514 116.289 717.598 116.305C719.205 116.308 720.56 115.739 721.664 114.631C731.236 105.021 741.213 95.7711 750.236 85.6696C759.092 75.7544 758.167 63.0534 748.999 53.4521C746.188 50.5088 743.27 47.668 739.954 44.3231Z" fill="#DFFE00"/>
<path d="M512.221 47.4491H539.721C539.37 49.7921 538.253 50.6244 537.336 51.5751L532.87 56.2069C521.907 67.5766 510.944 78.9463 499.958 90.294C498.129 92.183 496.588 94.1078 496.623 96.9438C496.684 101.918 496.696 106.895 496.618 111.869C496.57 114.864 497.806 116.343 500.89 116.339C524.109 116.305 547.327 116.296 570.546 116.317C573.654 116.32 574.834 114.828 574.76 111.831L574.749 111.391C574.649 107.318 574.548 103.231 574.788 99.1704C575.037 94.9552 573.111 93.5321 569.176 93.5579C558.175 93.6301 547.172 93.5839 536.17 93.52C534.435 93.5099 532.576 94.0105 530.925 92.8255C530.912 90.8328 532.55 90.0033 533.625 88.862C545.717 76.0229 557.836 63.2083 569.971 50.4098C571.664 48.6244 573.15 46.8528 573.103 44.1574C573.015 39.0603 573.047 33.9606 573.079 28.8622L573.08 28.7798C573.097 26.0216 571.951 24.5875 569.042 24.5922C547.934 24.6267 526.827 24.6228 505.719 24.6142C503.069 24.6131 501.877 25.915 501.892 28.5134C501.915 32.584 501.881 36.6548 501.891 40.7255C501.905 46.7645 502.511 47.3627 508.642 47.4566C509.546 47.4704 510.451 47.4533 512.221 47.4491Z" fill="white"/>
<path d="M654.474 24.5924C649.726 23.7691 647.053 26.0299 644.854 30.1253C640.146 38.89 635.003 47.4212 629.998 56.024C629.189 57.4141 628.695 59.1099 626.829 59.8663C625.35 59.2782 624.815 57.7933 624.066 56.5392C620.429 50.4544 616.011 44.6781 613.39 38.1794C608.82 26.8484 601.251 22.2958 589.349 24.5759C586.512 25.1194 583.398 23.7141 580.743 25.5037C580.59 27.7483 581.943 29.1203 582.88 30.6116C592.672 46.1916 602.467 61.7703 612.381 77.2722C614.244 80.1856 615.218 83.1033 615.157 86.587C615.012 94.8816 615.209 103.182 615.1 111.478C615.055 114.935 616.424 116.46 619.911 116.375C624.585 116.262 629.269 116.212 633.938 116.403C637.735 116.558 638.979 114.958 638.845 111.27C638.571 103.736 638.727 96.1869 638.494 88.6505C638.344 83.7859 639.711 79.6241 642.354 75.5042C651.966 60.5268 661.318 45.3829 670.72 30.2723C671.626 28.8175 673.138 27.456 672.056 24.5923L654.474 24.5924Z" fill="white"/>
</svg>
