<svg width="125" height="20" viewBox="0 0 125 20" fill="none" xmlns="http://www.w3.org/2000/svg">
<path d="M26.1998 1.41384C26.1913 0.04087 26.1521 0.000949866 24.777 1.16028e-05C24.1086 -0.000446166 23.4401 0.0128574 22.772 0.00174086C22.2469 -0.00699612 21.9947 0.21821 22.0051 0.756291C22.0183 1.4491 22.0061 2.14242 22.0038 2.83551C22 4.02425 21.9996 4.02533 20.8334 4.02547C15.2143 4.02618 9.59521 4.02022 3.97611 4.02982C1.99829 4.03321 0.427162 5.26654 0.0867459 7.13511C-0.0402578 7.83224 0.00800699 8.56541 0.0136844 9.28185C0.0339164 11.8349 1.65289 13.4292 4.22113 13.433C7.43912 13.4378 10.6571 13.4322 13.8751 13.4373C14.7492 13.4387 14.8642 13.5885 14.893 14.4107C14.9185 15.1397 14.5773 15.3478 13.9004 15.3448C9.93992 15.3272 5.97921 15.3481 2.01876 15.3233C1.30801 15.3188 1.0254 15.5592 1.06867 16.2718C1.1091 16.9377 1.09583 17.6088 1.06925 18.2761C1.04715 18.8308 1.23452 19.0903 1.83092 19.0884C6.3113 19.0737 10.7919 19.0983 15.2721 19.0647C16.5584 19.0551 17.5927 18.4557 18.3291 17.3704C19.0523 16.3046 19.0983 15.1062 19.0828 13.8806C19.0512 11.3843 17.3586 9.68165 14.8642 9.67761C11.6215 9.67235 8.37874 9.67854 5.13601 9.67165C4.28555 9.66985 4.02556 9.35636 4.10566 8.53754C4.17084 7.87127 4.59987 7.78116 5.15292 7.7809C11.8361 7.77776 18.5193 7.76511 25.2025 7.7563C25.3221 7.75614 25.4559 7.7408 25.5142 7.89446C25.4666 8.08603 25.2829 8.04238 25.1589 8.08955C23.0904 8.87686 22.0091 10.4291 22.005 12.6302C22.0035 13.4471 21.9945 14.2642 22.0085 15.0808C22.0477 17.3772 23.6397 19.021 25.936 19.0672C28.0145 19.109 30.0945 19.0664 32.1736 19.0886C32.7036 19.0942 32.8789 18.8628 32.8735 18.3797C32.8655 17.662 32.8713 16.9441 32.8757 16.2263C32.8797 15.5784 32.6017 15.3152 31.9183 15.3339C30.3356 15.3772 28.7509 15.355 27.1671 15.3433C26.2964 15.3369 26.2095 15.2392 26.2061 14.3337C26.1988 12.3782 26.1992 10.4226 26.2009 8.4671C26.2011 8.25196 26.1347 8.01895 26.3693 7.77531C26.4186 7.77531 26.4727 7.7753 26.53 7.77529C26.5857 7.77529 26.6445 7.77528 26.7051 7.77528C26.7572 7.77528 26.8107 7.77528 26.8648 7.77529C26.9007 7.7753 26.937 7.77531 26.9732 7.77532C28.5822 7.77608 30.1912 7.77956 31.8001 7.77659C32.699 7.77493 32.7976 7.68158 32.8122 6.8163C32.8231 6.17286 32.7856 5.52691 32.8296 4.88618C32.8771 4.1921 32.5933 3.99567 31.9204 4.01236C30.2382 4.05408 28.5541 4.01195 26.8711 4.03164C26.3555 4.03767 26.1603 3.85122 26.1891 3.3361C26.2222 2.74381 26.1987 2.14835 26.1998 1.41384Z" fill="white"/>
<path d="M53.2417 12.8181C53.2411 11.2092 53.2586 9.60001 53.2355 7.99139C53.2046 5.83817 51.6619 4.0901 49.5712 4.05448C45.4139 3.98365 41.2546 4.03314 37.0961 4.02586C36.5753 4.02495 36.4006 4.29088 36.4077 4.76935C36.418 5.46227 36.4453 6.15785 36.3993 6.84789C36.3512 7.56976 36.644 7.80197 37.349 7.7958C40.9131 7.76465 44.4775 7.77238 48.0418 7.75908C48.9234 7.75579 49.1342 7.9139 49.1488 8.65807C49.1662 9.54208 49.0464 9.66756 48.1269 9.66914C45.1318 9.6743 42.1366 9.66088 39.1416 9.68024C36.9977 9.6941 35.301 11.3282 35.2415 13.4609C35.196 15.0934 35.2419 16.7282 35.2232 18.3617C35.2168 18.9231 35.4767 19.0983 35.9962 19.0855C36.8126 19.0653 37.631 19.0526 38.4462 19.0892C39.0877 19.118 39.3351 18.8695 39.3273 18.228C39.3116 16.9414 39.3564 15.6542 39.3557 14.3672C39.3553 13.6792 39.6492 13.4161 40.3519 13.4239C42.9754 13.453 45.5997 13.4564 48.2231 13.4222C48.9422 13.4129 49.1851 13.6633 49.1658 14.3656C49.1311 15.627 49.1809 16.8905 49.1579 18.1524C49.1461 18.7978 49.3495 19.1233 50.0516 19.0882C50.8417 19.0487 51.6358 19.0599 52.4272 19.0834C53.0363 19.1014 53.2577 18.8422 53.2495 18.239C53.2258 16.4818 53.2414 14.7241 53.2417 12.8181Z" fill="white"/>
<path d="M72.554 14.5607C72.5533 12.5567 72.567 10.5526 72.5426 8.54889C72.5357 7.98038 72.7079 7.75835 73.3048 7.77078C74.9123 7.80425 76.5209 7.78559 78.129 7.78154C79.029 7.77928 79.1304 7.68063 79.1355 6.8209C79.1394 6.1777 79.1095 5.53347 79.1362 4.89144C79.1626 4.25932 78.9156 4.00489 78.2667 4.0164C76.6344 4.04537 75.0008 4.00788 73.3684 4.03363C72.774 4.04301 72.512 3.85807 72.5417 3.2301C72.5802 2.41556 72.5435 1.59766 72.5487 0.781269C72.5521 0.26262 72.3181 0.000555477 71.7883 0.00387126C70.8977 0.00944425 70.0069 0.01128 69.1164 0.00199469C68.5842 -0.00355572 68.3515 0.253641 68.355 0.773828C68.3603 1.54073 68.3053 2.31126 68.3629 3.07367C68.4206 3.83827 68.1252 4.05063 67.3878 4.04068C64.7905 4.00563 62.1922 4.01171 59.5947 4.03633C57.5057 4.05613 55.774 5.61249 55.744 7.59813C55.6899 11.1847 55.7316 14.7727 55.7187 18.3601C55.7167 18.9204 55.9753 19.0986 56.4935 19.0833C57.1609 19.0636 57.8294 19.0799 58.4974 19.0804C59.7816 19.0813 59.783 19.0812 59.7838 17.8327C59.7858 14.8391 59.7827 11.8454 59.7896 8.8518C59.7917 7.91114 59.9292 7.782 60.8696 7.78117C64.3828 7.77809 67.8959 7.77745 71.409 7.77992C71.5602 7.78003 71.7636 7.68796 71.8359 7.96729C69.9768 8.57976 68.6947 9.76455 68.4136 11.7571C68.2343 13.0278 68.2467 14.3344 68.4067 15.6066C68.6542 17.5754 70.0952 18.97 72.0107 19.0484C74.1596 19.1364 76.3147 19.0715 78.4671 19.0804C78.9371 19.0823 79.1455 18.8544 79.1441 18.4005C79.1421 17.782 79.1414 17.1636 79.1412 16.5451C79.1406 15.4183 79.0123 15.3295 77.9069 15.3481C76.3743 15.374 74.8406 15.3384 73.3074 15.3324C72.8771 15.3307 72.589 15.1721 72.554 14.5607Z" fill="white"/>
<path fill-rule="evenodd" clip-rule="evenodd" d="M26.7051 7.77528C26.6445 7.77528 26.5857 7.77529 26.53 7.77529C26.4727 7.7753 26.4186 7.77531 26.3693 7.77531C26.4666 7.77531 26.5821 7.77528 26.7051 7.77528Z" fill="white"/>
<path d="M121.374 7.2703C120.444 6.34743 119.505 5.43262 118.587 4.49728C118.272 4.17657 117.938 4.01159 117.478 4.01901C116.168 4.04017 114.857 4.02188 113.546 4.03145C113.317 4.03312 113.039 3.94018 112.887 4.23804C112.9 4.54767 113.149 4.70162 113.334 4.88819C115.301 6.87264 117.272 8.8532 119.245 10.8325C119.948 11.5387 119.948 11.58 119.228 12.3019C117.185 14.3506 115.143 16.4001 113.108 18.4564C112.951 18.6141 112.682 18.722 112.736 19.0762C114.399 19.0762 116.053 19.0749 117.707 19.0775C117.971 19.0779 118.193 18.9847 118.374 18.8028C119.944 17.2265 121.581 15.7093 123.061 14.0524C124.514 12.426 124.362 10.3426 122.858 8.76772C122.397 8.28494 121.918 7.81896 121.374 7.2703Z" fill="#00E0B8"/>
<path d="M84.0193 7.78305H88.5303C88.4726 8.16738 88.2894 8.3039 88.139 8.45984L87.4064 9.21959C85.6081 11.0846 83.8098 12.9495 82.0079 14.8109C81.7079 15.1207 81.455 15.4365 81.4608 15.9017C81.4709 16.7176 81.4728 17.534 81.46 18.3499C81.4522 18.8411 81.6549 19.0837 82.1608 19.083C85.9693 19.0775 89.7779 19.076 93.5864 19.0794C94.0963 19.0799 94.2897 18.8352 94.2776 18.3436L94.2759 18.2714C94.2594 17.6033 94.2429 16.9329 94.2822 16.2669C94.3231 15.5755 94.0072 15.342 93.3617 15.3463C91.5571 15.3581 89.7523 15.3505 87.9477 15.34C87.663 15.3384 87.3582 15.4205 87.0874 15.2261C87.0853 14.8993 87.3539 14.7632 87.5302 14.576C89.5138 12.47 91.5016 10.368 93.4921 8.26869C93.7698 7.97584 94.0135 7.68525 94.0059 7.24312C93.9914 6.40705 93.9966 5.57054 94.0019 4.73425L94.002 4.72074C94.0048 4.26831 93.8169 4.03307 93.3397 4.03385C89.8774 4.03951 86.4151 4.03886 82.9528 4.03746C82.5182 4.03728 82.3227 4.25082 82.3251 4.67704C82.3289 5.34473 82.3232 6.01247 82.3249 6.68018C82.3273 7.67076 82.4266 7.76887 83.4323 7.78428C83.5806 7.78655 83.729 7.78375 84.0193 7.78305Z" fill="white"/>
<path d="M107.353 4.03388C106.574 3.89884 106.136 4.26968 105.775 4.94145C105.003 6.3791 104.159 7.77847 103.338 9.1896C103.206 9.4176 103.124 9.69577 102.818 9.81984C102.576 9.72338 102.488 9.47981 102.365 9.27409C101.769 8.27601 101.044 7.32853 100.614 6.26255C99.8645 4.40392 98.623 3.65718 96.6707 4.03117C96.2053 4.12032 95.6945 3.88981 95.259 4.18336C95.2338 4.55154 95.4558 4.77658 95.6095 5.0212C97.2157 7.57679 98.8223 10.1321 100.449 12.6749C100.754 13.1528 100.914 13.6314 100.904 14.2028C100.88 15.5634 100.912 16.9249 100.895 18.2856C100.887 18.8527 101.112 19.1029 101.684 19.089C102.45 19.0704 103.219 19.0622 103.985 19.0935C104.607 19.1189 104.811 18.8564 104.789 18.2516C104.744 17.0158 104.77 15.7775 104.732 14.5413C104.707 13.7434 104.931 13.0607 105.365 12.3849C106.942 9.92819 108.476 7.44414 110.018 4.96555C110.166 4.72692 110.415 4.5036 110.237 4.03387L107.353 4.03388Z" fill="white"/>
</svg>
