<svg width="839" height="839" viewBox="0 0 839 839" fill="none" xmlns="http://www.w3.org/2000/svg">
<path d="M201.026 369.913C200.974 361.543 200.735 361.299 192.351 361.294C188.277 361.291 184.201 361.372 180.128 361.304C176.927 361.251 175.39 362.624 175.453 365.904C175.533 370.128 175.459 374.355 175.445 378.58C175.422 385.827 175.419 385.834 168.31 385.835C134.053 385.839 99.7964 385.803 65.5398 385.861C53.482 385.882 43.9037 393.401 41.8284 404.792C41.0541 409.042 41.3484 413.512 41.383 417.88C41.5063 433.444 51.3763 443.164 67.0335 443.187C86.6518 443.217 106.27 443.182 125.889 443.213C131.218 443.222 131.919 444.135 132.094 449.148C132.25 453.592 130.17 454.861 126.043 454.842C101.898 454.735 77.7516 454.862 53.6069 454.711C49.2738 454.684 47.5509 456.15 47.8147 460.494C48.0612 464.553 47.9802 468.645 47.8182 472.713C47.6835 476.095 48.8257 477.677 52.4617 477.665C79.7762 477.576 107.092 477.726 134.405 477.521C142.247 477.462 148.553 473.808 153.042 467.192C157.451 460.694 157.732 453.388 157.637 445.916C157.444 430.697 147.125 420.317 131.919 420.293C112.15 420.261 92.3802 420.298 72.6111 420.256C67.4262 420.245 65.8413 418.334 66.3296 413.342C66.7269 409.28 69.3425 408.731 72.7142 408.729C113.458 408.71 154.202 408.633 194.946 408.579C195.675 408.578 196.49 408.485 196.846 409.422C196.556 410.59 195.436 410.324 194.68 410.611C182.07 415.411 175.477 424.874 175.452 438.293C175.443 443.273 175.388 448.254 175.473 453.233C175.713 467.233 185.418 477.254 199.417 477.536C212.089 477.791 224.77 477.531 237.445 477.666C240.676 477.701 241.745 476.29 241.712 473.345C241.663 468.969 241.698 464.593 241.725 460.217C241.749 456.266 240.055 454.662 235.888 454.776C226.239 455.04 216.578 454.905 206.923 454.833C201.614 454.794 201.085 454.198 201.064 448.678C201.02 436.757 201.022 424.835 201.033 412.913C201.034 411.601 200.629 410.181 202.059 408.695C202.36 408.695 202.689 408.695 203.039 408.695C203.378 408.695 203.737 408.695 204.106 408.695C204.424 408.695 204.75 408.695 205.08 408.695C205.299 408.695 205.52 408.695 205.741 408.695C215.55 408.7 225.359 408.721 235.168 408.703C240.648 408.693 241.249 408.124 241.338 402.849C241.405 398.926 241.176 394.988 241.444 391.082C241.734 386.85 240.004 385.653 235.901 385.755C225.646 386.009 215.379 385.752 205.118 385.872C201.975 385.909 200.785 384.772 200.96 381.632C201.163 378.021 201.019 374.391 201.026 369.913Z" fill="white"/>
<path d="M365.885 439.439C365.882 429.63 365.988 419.82 365.848 410.013C365.66 396.886 356.254 386.229 343.508 386.011C318.163 385.58 292.806 385.881 267.454 385.837C264.28 385.831 263.214 387.453 263.258 390.37C263.32 394.594 263.487 398.835 263.207 403.041C262.913 407.442 264.698 408.858 268.996 408.82C290.725 408.63 312.455 408.677 334.185 408.596C339.56 408.576 340.845 409.54 340.934 414.077C341.039 419.466 340.309 420.231 334.704 420.241C316.444 420.272 298.184 420.191 279.925 420.309C266.855 420.393 256.511 430.356 256.148 443.357C255.871 453.31 256.151 463.276 256.037 473.235C255.998 476.657 257.582 477.726 260.749 477.647C265.726 477.524 270.716 477.447 275.686 477.67C279.596 477.846 281.105 476.331 281.057 472.42C280.961 464.576 281.235 456.728 281.23 448.883C281.228 444.688 283.02 443.084 287.304 443.132C303.298 443.309 319.297 443.33 335.29 443.122C339.674 443.065 341.155 444.591 341.037 448.873C340.826 456.563 341.129 464.265 340.989 471.959C340.917 475.894 342.157 477.878 346.437 477.664C351.254 477.423 356.096 477.492 360.92 477.635C364.633 477.745 365.983 476.164 365.933 472.487C365.788 461.774 365.884 451.059 365.885 439.439Z" fill="white"/>
<path d="M483.622 450.062C483.618 437.845 483.702 425.627 483.553 413.411C483.511 409.946 484.56 408.592 488.2 408.668C497.999 408.872 507.806 408.758 517.61 408.733C523.097 408.72 523.715 408.118 523.746 402.877C523.77 398.956 523.587 395.028 523.751 391.114C523.911 387.26 522.405 385.709 518.45 385.779C508.498 385.956 498.539 385.727 488.587 385.884C484.964 385.942 483.366 384.814 483.547 380.986C483.782 376.02 483.558 371.034 483.59 366.056C483.611 362.895 482.184 361.297 478.954 361.317C473.525 361.351 468.094 361.362 462.665 361.306C459.421 361.272 458.002 362.84 458.024 366.011C458.056 370.686 457.72 375.384 458.071 380.032C458.423 384.693 456.622 385.988 452.127 385.927C436.292 385.714 420.452 385.751 404.616 385.901C391.881 386.021 381.324 395.51 381.141 407.615C380.811 429.481 381.065 451.355 380.987 473.225C380.974 476.641 382.551 477.728 385.71 477.634C389.779 477.514 393.854 477.613 397.927 477.616C405.756 477.622 405.764 477.621 405.769 470.01C405.782 451.759 405.762 433.509 405.804 415.258C405.818 409.523 406.656 408.736 412.389 408.731C433.807 408.712 455.224 408.708 476.642 408.723C477.563 408.724 478.804 408.163 479.244 409.866C467.91 413.6 460.094 420.823 458.38 432.97C457.287 440.717 457.363 448.683 458.338 456.439C459.847 468.441 468.632 476.943 480.31 477.421C493.411 477.958 506.549 477.562 519.671 477.616C522.537 477.628 523.807 476.239 523.798 473.471C523.787 469.701 523.782 465.931 523.781 462.16C523.777 455.29 522.995 454.749 516.256 454.863C506.912 455.021 497.563 454.804 488.215 454.767C485.592 454.757 483.835 453.79 483.622 450.062Z" fill="white"/>
<path fill-rule="evenodd" clip-rule="evenodd" d="M204.106 408.695C203.737 408.695 203.378 408.695 203.039 408.695C202.689 408.695 202.36 408.695 202.059 408.695C202.652 408.695 203.356 408.695 204.106 408.695Z" fill="white"/>
<path d="M781.253 405.617C775.58 399.99 769.856 394.413 764.261 388.711C762.342 386.756 760.304 385.75 757.499 385.795C749.511 385.924 741.519 385.813 733.529 385.871C732.133 385.881 730.438 385.315 729.512 387.131C729.589 389.018 731.106 389.957 732.234 391.094C744.227 403.192 756.245 415.267 768.27 427.333C772.561 431.639 772.556 431.89 768.167 436.291C755.713 448.781 743.263 461.276 730.856 473.812C729.904 474.774 728.262 475.432 728.593 477.591C738.73 477.591 748.814 477.583 758.898 477.599C760.505 477.601 761.859 477.033 762.963 475.924C772.536 466.314 782.512 457.065 791.535 446.963C800.392 437.048 799.467 424.347 790.298 414.746C787.488 411.802 784.57 408.961 781.253 405.617Z" fill="#DFFE00"/>
<path d="M553.52 408.743H581.021C580.669 411.086 579.552 411.918 578.636 412.869L574.169 417.5C563.206 428.87 552.243 440.24 541.257 451.587C539.429 453.476 537.887 455.401 537.922 458.237C537.984 463.212 537.996 468.189 537.917 473.163C537.87 476.158 539.106 477.636 542.19 477.632C565.408 477.599 588.627 477.59 611.845 477.61C614.954 477.613 616.133 476.121 616.06 473.125L616.049 472.685C615.948 468.611 615.848 464.524 616.088 460.464C616.337 456.249 614.411 454.826 610.476 454.851C599.474 454.924 588.471 454.877 577.469 454.813C575.734 454.803 573.875 455.304 572.224 454.119C572.212 452.126 573.85 451.297 574.924 450.155C587.017 437.316 599.136 424.502 611.271 411.703C612.964 409.918 614.449 408.146 614.403 405.451C614.315 400.354 614.347 395.254 614.379 390.156L614.379 390.073C614.396 387.315 613.251 385.881 610.342 385.886C589.234 385.92 568.126 385.916 547.018 385.908C544.369 385.907 543.177 387.208 543.191 389.807C543.214 393.877 543.18 397.948 543.19 402.019C543.205 408.058 543.81 408.656 549.941 408.75C550.846 408.764 551.75 408.747 553.52 408.743Z" fill="white"/>
<path d="M695.773 385.886C691.025 385.063 688.353 387.323 686.153 391.419C681.446 400.183 676.303 408.715 671.297 417.317C670.488 418.708 669.994 420.403 668.128 421.16C666.65 420.572 666.115 419.087 665.365 417.833C661.728 411.748 657.31 405.972 654.69 399.473C650.12 388.142 642.551 383.589 630.649 385.869C627.812 386.413 624.697 385.008 622.043 386.797C621.889 389.042 623.242 390.414 624.179 391.905C633.971 407.485 643.766 423.064 653.681 438.566C655.544 441.479 656.518 444.397 656.457 447.88C656.312 456.175 656.508 464.475 656.4 472.771C656.354 476.228 657.724 477.754 661.21 477.669C665.884 477.555 670.569 477.506 675.238 477.696C679.034 477.851 680.279 476.251 680.145 472.564C679.87 465.029 680.027 457.48 679.794 449.944C679.644 445.079 681.01 440.918 683.654 436.798C693.265 421.82 702.617 406.676 712.02 391.566C712.925 390.111 714.438 388.749 713.356 385.886L695.773 385.886Z" fill="white"/>
</svg>
